HIERARCHY
ROOT Hips
{
	OFFSET 0.000000 0.000000 0.000000
	CHANNELS 6 Xposition Yposition Zposition Zrotation Yrotation Xrotation 
	JOINT LowerBack
	{
		OFFSET 0.000000 0.000000 0.000000
		CHANNELS 3 Zrotation Yrotation Xrotation
		JOINT Spine
		{
			OFFSET 0.028270 2.035590 -0.193380
			CHANNELS 3 Zrotation Yrotation Xrotation
			JOINT Spine1
			{
				OFFSET 0.056720 2.048850 -0.042750
				CHANNELS 3 Zrotation Yrotation Xrotation
				JOINT Neck
				{
					OFFSET 0.000000 0.000000 0.000000
					CHANNELS 3 Zrotation Yrotation Xrotation
					JOINT Neck1
					{
						OFFSET -0.054170 1.746240 0.172020
						CHANNELS 3 Zrotation Yrotation Xrotation
						JOINT Head
						{
							OFFSET 0.104070 1.761360 -0.123970
							CHANNELS 3 Zrotation Yrotation Xrotation
							End Site
							{
								OFFSET 0.000000 0.000000 0.000000
							}
						}
					}
				}
				JOINT LeftShoulder
				{
					OFFSET 0.000000 0.000000 0.000000
					CHANNELS 3 Zrotation Yrotation Xrotation
					JOINT LeftArm
					{
						OFFSET 3.362410 1.200890 -0.311210
						CHANNELS 3 Zrotation Yrotation Xrotation
						JOINT LeftForeArm
						{
							OFFSET 4.983000 -0.000000 -0.000000
							CHANNELS 3 Zrotation Yrotation Xrotation
							JOINT LeftHand
							{
								OFFSET 3.483560 -0.000000 -0.000000
								CHANNELS 3 Zrotation Yrotation Xrotation
								JOINT LeftFingerBase
								{
									OFFSET 0.000000 0.000000 0.000000
									CHANNELS 3 Zrotation Yrotation Xrotation
									JOINT LeftHandIndex1
									{
										OFFSET 0.715260 -0.000000 -0.000000
										CHANNELS 3 Zrotation Yrotation Xrotation
										End Site
										{
											OFFSET 0.000000 0.000000 0.000000
										}
									}
								}
								JOINT LThumb
								{
									OFFSET 0.000000 0.000000 0.000000
									CHANNELS 3 Zrotation Yrotation Xrotation
									End Site
									{
										OFFSET 0.000000 0.000000 0.000000
									}
								}
							}
						}
					}
				}
				JOINT RightShoulder
				{
					OFFSET 0.000000 0.000000 0.000000
					CHANNELS 3 Zrotation Yrotation Xrotation
					JOINT RightArm
					{
						OFFSET -3.136600 1.374050 -0.404650
						CHANNELS 3 Zrotation Yrotation Xrotation
						JOINT RightForeArm
						{
							OFFSET -5.241900 -0.000000 -0.000000
							CHANNELS 3 Zrotation Yrotation Xrotation
							JOINT RightHand
							{
								OFFSET -3.444170 -0.000000 -0.000000
								CHANNELS 3 Zrotation Yrotation Xrotation
								JOINT RightFingerBase
								{
									OFFSET 0.000000 0.000000 0.000000
									CHANNELS 3 Zrotation Yrotation Xrotation
									JOINT RightHandIndex1
									{
										OFFSET -0.622530 -0.000000 -0.000000
										CHANNELS 3 Zrotation Yrotation Xrotation
										End Site
										{
											OFFSET 0.000000 0.000000 0.000000
										}
									}
								}
								JOINT RThumb
								{
									OFFSET 0.000000 0.000000 0.000000
									CHANNELS 3 Zrotation Yrotation Xrotation
									End Site
									{
										OFFSET 0.000000 0.000000 0.000000
									}
								}
							}
						}
					}
				}
			}
		}
	}
}
}
MOTION
Frames: 14
Frame Time: 0.008333
2.420613 16.841923 7.745038 7.233886 5.667272 15.797773 -7.136355 2.580331 -9.404465 -2.820062 3.025037 -4.701770 -7.313080 2.957294 0.978645 10.101465 -1.820107 -8.588826 -3.999460 -0.308411 -0.309737 0.000000 0.000000 0.000000 -3.866529 28.541006 1.336661 -55.535045 12.706867 -17.752671 -2.892770 -42.769819 0.014978 12.043180 0.371922 0.047900 -0.155262 -0.068205 0.000000 0.000000 0.000000 0.000000 0.000000 0.000000 0.000000 17.997212 8.178772 -1.562428 81.401292 21.301985 15.564730 1.994339 45.687513 0.000189 -1.736223 8.988619 -0.143924 0.046631 -0.347804 0.000000 0.000000 0.000000 0.000000 0.000000 0.000000 0.000000 
2.444372 16.839661 7.881058 7.653598 5.337684 15.603010 -7.399046 2.494107 -9.219917 -2.860506 2.971782 -4.667921 -7.285831 2.903675 0.956481 10.013587 -1.747471 -8.592729 -4.027948 -0.309981 -0.316259 0.000000 0.000000 0.000000 -3.922420 28.380490 1.343226 -55.297868 11.876727 -17.697511 -2.929683 -42.197049 0.014616 12.187869 0.380138 0.049082 -0.152974 -0.065891 0.000000 0.000000 0.000000 0.000000 0.000000 0.000000 0.000000 18.052939 8.174160 -1.549328 81.594404 21.017729 15.572449 1.997313 45.027970 0.000140 -1.758184 9.063763 -0.146867 0.046567 -0.344063 0.000000 0.000000 0.000000 0.000000 0.000000 0.000000 0.000000 
2.469662 16.838633 8.012247 8.038455 4.992809 15.383667 -7.600103 2.419687 -8.996629 -2.885716 2.922295 -4.625988 -7.249028 2.854337 0.934827 9.899090 -1.667088 -8.598153 -4.052935 -0.311143 -0.323205 0.000000 0.000000 0.000000 -3.998885 28.210090 1.351715 -55.150968 10.964797 -17.657335 -2.964738 -41.612273 0.014079 12.327338 0.392232 0.050564 -0.150506 -0.062899 0.000000 0.000000 0.000000 0.000000 0.000000 0.000000 0.000000 18.056751 8.170418 -1.532961 81.736685 20.713486 15.546489 2.000006 44.364497 0.000169 -1.755134 9.109342 -0.147314 0.046119 -0.339483 0.000000 0.000000 0.000000 0.000000 0.000000 0.000000 0.000000 
2.496600 16.838955 8.139252 8.379677 4.630987 15.144767 -7.735193 2.356596 -8.745755 -2.895589 2.875702 -4.578008 -7.205687 2.808330 0.914620 9.767554 -1.586098 -8.604854 -4.075288 -0.312009 -0.330353 0.000000 0.000000 0.000000 -4.091417 28.027420 1.360889 -55.091662 9.993800 -17.633894 -2.996078 -41.038776 0.013380 12.462811 0.407457 0.052444 -0.147935 -0.059275 0.000000 0.000000 0.000000 0.000000 0.000000 0.000000 0.000000 18.024703 8.161406 -1.511802 81.825559 20.390152 15.489446 2.003467 43.698708 0.000283 -1.727411 9.124419 -0.145164 0.045351 -0.334102 0.000000 0.000000 0.000000 0.000000 0.000000 0.000000 0.000000 
2.525078 16.840649 8.262681 8.674516 4.251726 14.892385 -7.806402 2.302551 -8.478312 -2.891253 2.830179 -4.526001 -7.158722 2.763725 0.896716 9.628887 -1.511255 -8.612620 -4.095951 -0.312691 -0.337539 0.000000 0.000000 0.000000 -4.194933 27.830036 1.369704 -55.113449 8.984342 -17.623909 -3.022236 -40.496704 0.012538 12.596024 0.424342 0.054323 -0.145323 -0.055092 0.000000 0.000000 0.000000 0.000000 0.000000 0.000000 0.000000 17.973798 8.140846 -1.484754 81.860257 20.048534 15.401807 2.008368 43.032616 0.000466 -1.679020 9.110804 -0.140816 0.044355 -0.328011 0.000000 0.000000 0.000000 0.000000 0.000000 0.000000 0.000000 
2.554820 16.843780 8.383185 8.922414 3.856362 14.634102 -7.818612 2.254489 -8.205201 -2.874359 2.783508 -4.472169 -7.110973 2.718150 0.881095 9.492229 -1.448808 -8.620315 -4.116040 -0.313327 -0.344361 0.000000 0.000000 0.000000 -4.304318 27.610330 1.377420 -55.206129 7.962236 -17.619801 -3.041852 -40.007542 0.011584 12.728935 0.441664 0.056303 -0.142714 -0.050475 0.000000 0.000000 0.000000 0.000000 0.000000 0.000000 0.000000 17.920930 8.102380 -1.450602 81.841288 19.689518 15.283889 2.015232 42.366210 0.000697 -1.617231 9.073968 -0.134969 0.043263 -0.321340 0.000000 0.000000 0.000000 0.000000 0.000000 0.000000 0.000000 
2.585507 16.848292 8.501354 9.125603 3.447097 14.378246 -7.778968 2.208916 -7.936978 -2.846876 2.733312 -4.418783 -7.064766 2.669043 0.867117 9.364881 -1.403975 -8.626250 -4.136524 -0.314047 -0.350265 0.000000 0.000000 0.000000 -4.415337 27.358065 1.383586 -55.357487 6.954720 -17.611321 -3.053992 -39.590550 0.010551 12.862106 0.458268 0.058185 -0.140147 -0.045574 0.000000 0.000000 0.000000 0.000000 0.000000 0.000000 0.000000 17.879995 8.040172 -1.408439 81.770929 19.313385 15.135134 2.024316 41.698701 0.000945 -1.552285 9.022053 -0.128818 0.042227 -0.314247 0.000000 0.000000 0.000000 0.000000 0.000000 0.000000 0.000000 
2.616670 16.854131 8.617601 9.290712 3.026780 14.131512 -7.699276 2.162012 -7.681242 -2.811670 2.677339 -4.366868 -7.022201 2.614128 0.856582 9.253195 -1.375427 -8.630290 -4.158060 -0.314906 -0.355296 0.000000 0.000000 0.000000 -4.519469 27.082346 1.387836 -55.555559 5.954749 -17.582726 -3.059559 -39.239712 0.009459 12.997671 0.468523 0.059368 -0.137686 -0.040418 0.000000 0.000000 0.000000 0.000000 0.000000 0.000000 0.000000 17.861358 7.954792 -1.360179 81.653603 18.917106 14.943290 2.035037 41.035578 0.001183 -1.490543 8.961718 -0.122866 0.041288 -0.306876 0.000000 0.000000 0.000000 0.000000 0.000000 0.000000 0.000000 
2.647890 16.861212 8.732351 9.423462 2.598049 13.900870 -7.588759 2.110787 -7.444968 -2.770853 2.613816 -4.318038 -6.984466 2.551481 0.848496 9.159968 -1.365586 -8.630669 -4.181089 -0.315976 -0.358920 0.000000 0.000000 0.000000 -4.614452 26.774464 1.390096 -55.786455 4.981042 -17.519948 -3.058616 -38.964673 0.008340 13.135497 0.471395 0.059655 -0.135366 -0.035145 0.000000 0.000000 0.000000 0.000000 0.000000 0.000000 0.000000 17.870956 7.842625 -1.305866 81.494424 18.501096 14.705557 2.047257 40.374588 0.001380 -1.443750 8.902516 -0.118110 0.040595 -0.299372 0.000000 0.000000 0.000000 0.000000 0.000000 0.000000 0.000000 
2.678770 16.869348 8.845829 9.530842 2.164089 13.691351 -7.457500 2.052671 -7.232144 -2.726655 2.541394 -4.272613 -6.952446 2.479773 0.844492 9.086742 -1.372972 -8.627540 -4.205553 -0.317243 -0.361251 0.000000 0.000000 0.000000 -4.695575 26.443625 1.390121 -56.037421 4.021078 -17.406259 -3.052872 -38.751934 0.007203 13.275208 0.462375 0.058543 -0.133260 -0.029759 0.000000 0.000000 0.000000 0.000000 0.000000 0.000000 0.000000 17.910618 7.703853 -1.247823 81.299329 18.065047 14.413460 2.060377 39.717708 0.001512 -1.419254 8.851251 -0.115451 0.040200 -0.291835 0.000000 0.000000 0.000000 0.000000 0.000000 0.000000 0.000000 
2.708995 16.878451 8.958181 9.618619 1.727385 13.505806 -7.312100 1.986117 -7.045378 -2.680324 2.459306 -4.232223 -6.925907 2.398015 0.840068 9.030918 -1.396852 -8.616382 -4.231635 -0.318789 -0.360949 0.000000 0.000000 0.000000 -4.763130 26.065443 1.389340 -56.295298 3.111702 -17.233282 -3.041898 -38.619116 0.006073 13.413507 0.446104 0.056636 -0.131368 -0.024425 0.000000 0.000000 0.000000 0.000000 0.000000 0.000000 0.000000 17.977598 7.538031 -1.185003 81.075164 17.607991 14.063439 2.074271 39.060014 0.001564 -1.426351 8.816208 -0.115487 0.040205 -0.284377 -0.000000 0.000000 0.000000 0.000000 0.000000 0.000000 0.000000 
2.738306 16.888324 9.069481 9.691593 1.290894 13.345150 -7.159490 1.910040 -6.884299 -2.633301 2.367233 -4.195801 -6.904930 2.306062 0.838802 8.991282 -1.435052 -8.599790 -4.258464 -0.320488 -0.358849 0.000000 0.000000 0.000000 -4.813158 25.661961 1.387319 -56.551922 2.217333 -16.987344 -3.028385 -38.535726 0.004933 13.549396 0.416892 0.053030 -0.129786 -0.019027 0.000000 0.000000 0.000000 0.000000 0.000000 0.000000 0.000000 18.067035 7.346413 -1.120935 80.828563 17.131610 13.647968 2.088357 38.403805 0.001530 -1.467357 8.798882 -0.118521 0.040596 -0.277006 -0.000000 0.000000 0.000000 0.000000 0.000000 0.000000 0.000000 
2.766485 16.898809 9.179759 9.753638 0.857513 13.208090 -7.003157 1.824068 -6.746780 -2.586092 2.265161 -4.163514 -6.888698 2.203834 0.838206 8.963561 -1.484454 -8.575314 -4.285590 -0.322327 -0.354258 0.000000 0.000000 0.000000 -4.845778 25.223144 1.385446 -56.798476 1.350542 -16.663489 -3.012780 -38.502983 0.003779 13.679052 0.379515 0.048329 -0.128535 -0.013592 0.000000 0.000000 0.000000 0.000000 0.000000 0.000000 0.000000 18.171151 7.131494 -1.055823 80.565594 16.634872 13.161646 2.102435 37.747880 0.001415 -1.544175 8.800451 -0.124652 0.041368 -0.269743 -0.000000 0.000000 0.000000 0.000000 0.000000 0.000000 0.000000 
2.793460 16.909802 9.288998 9.806025 0.429845 13.091702 -6.844612 1.728502 -6.629202 -2.538889 2.153533 -4.134454 -6.876570 2.091873 0.838900 8.944478 -1.544092 -8.543881 -4.312140 -0.324212 -0.347466 0.000000 0.000000 0.000000 -4.860110 24.755070 1.384230 -57.029269 0.499507 -16.258009 -2.996399 -38.506592 0.002590 13.799024 0.335143 0.042630 -0.127671 -0.008051 0.000000 0.000000 0.000000 0.000000 0.000000 0.000000 0.000000 18.282390 6.894177 -0.990935 80.291103 16.119637 12.602473 2.116437 37.092612 0.001233 -1.655046 8.818046 -0.133681 0.042482 -0.262557 -0.000000 0.000000 0.000000 0.000000 0.000000 0.000000 0.000000 
